<svg width="1363" height="301" viewBox="0 0 1363 301" fill="none" xmlns="http://www.w3.org/2000/svg">
<rect width="1363" height="301" rx="15" fill="#F0F0F0"/>
<path d="M0 15C0 6.71573 6.71573 0 15 0H37V301H15C6.71573 301 0 294.284 0 286V15Z" fill="#00DD02"/>
<path d="M115.123 133.607C115.123 132.998 115.033 132.452 114.854 131.969C114.675 131.467 114.344 131.002 113.86 130.572C113.377 130.143 112.679 129.713 111.766 129.283C110.87 128.836 109.689 128.37 108.221 127.887C106.502 127.314 104.846 126.669 103.252 125.953C101.659 125.219 100.236 124.369 98.9824 123.402C97.7292 122.417 96.7355 121.271 96.0015 119.964C95.2674 118.639 94.9004 117.1 94.9004 115.345C94.9004 113.662 95.2764 112.149 96.0283 110.807C96.7803 109.446 97.8276 108.291 99.1704 107.342C100.531 106.375 102.125 105.641 103.951 105.14C105.777 104.621 107.773 104.361 109.939 104.361C112.804 104.361 115.328 104.863 117.513 105.865C119.715 106.85 121.434 108.255 122.669 110.082C123.922 111.89 124.549 114.029 124.549 116.5H115.176C115.176 115.515 114.97 114.647 114.559 113.895C114.165 113.143 113.565 112.552 112.759 112.123C111.954 111.693 110.942 111.478 109.725 111.478C108.543 111.478 107.549 111.657 106.744 112.015C105.938 112.373 105.329 112.857 104.917 113.465C104.506 114.056 104.3 114.71 104.3 115.426C104.3 116.017 104.461 116.554 104.783 117.037C105.123 117.503 105.598 117.941 106.207 118.353C106.833 118.765 107.585 119.159 108.462 119.535C109.358 119.911 110.36 120.278 111.47 120.636C113.547 121.298 115.391 122.041 117.002 122.865C118.632 123.67 120.001 124.592 121.111 125.631C122.239 126.651 123.09 127.815 123.663 129.122C124.253 130.429 124.549 131.906 124.549 133.553C124.549 135.308 124.209 136.865 123.528 138.226C122.848 139.587 121.872 140.742 120.601 141.69C119.33 142.621 117.808 143.329 116.036 143.812C114.263 144.295 112.285 144.537 110.101 144.537C108.095 144.537 106.117 144.286 104.166 143.785C102.232 143.266 100.477 142.478 98.9019 141.422C97.3263 140.348 96.0641 138.978 95.1152 137.313C94.1842 135.63 93.7188 133.634 93.7188 131.324H103.172C103.172 132.47 103.324 133.437 103.628 134.225C103.933 135.012 104.38 135.648 104.971 136.131C105.562 136.597 106.287 136.937 107.146 137.152C108.006 137.349 108.991 137.447 110.101 137.447C111.3 137.447 112.267 137.277 113.001 136.937C113.735 136.579 114.272 136.113 114.612 135.541C114.952 134.95 115.123 134.305 115.123 133.607ZM138.541 114.942V144H129.463V114.942H138.541ZM128.926 107.45C128.926 106.161 129.392 105.104 130.323 104.281C131.254 103.457 132.462 103.045 133.948 103.045C135.434 103.045 136.643 103.457 137.574 104.281C138.505 105.104 138.97 106.161 138.97 107.45C138.97 108.739 138.505 109.795 137.574 110.619C136.643 111.442 135.434 111.854 133.948 111.854C132.462 111.854 131.254 111.442 130.323 110.619C129.392 109.795 128.926 108.739 128.926 107.45ZM160.831 137.34V102.75H169.935V144H161.771L160.831 137.34ZM142.999 129.82V129.256C142.999 127.054 143.24 125.049 143.724 123.241C144.207 121.415 144.923 119.848 145.872 118.541C146.821 117.216 148.003 116.196 149.417 115.479C150.831 114.763 152.461 114.405 154.305 114.405C155.952 114.405 157.393 114.79 158.628 115.56C159.864 116.312 160.92 117.368 161.797 118.729C162.675 120.09 163.391 121.683 163.946 123.509C164.501 125.318 164.922 127.269 165.208 129.364V130.035C164.922 132.005 164.501 133.867 163.946 135.621C163.391 137.358 162.675 138.897 161.797 140.24C160.92 141.583 159.855 142.639 158.602 143.409C157.366 144.161 155.916 144.537 154.251 144.537C152.407 144.537 150.778 144.17 149.363 143.436C147.967 142.702 146.794 141.673 145.845 140.348C144.914 139.023 144.207 137.465 143.724 135.675C143.24 133.884 142.999 131.933 142.999 129.82ZM152.049 129.256V129.82C152.049 130.912 152.12 131.924 152.264 132.855C152.407 133.786 152.649 134.61 152.989 135.326C153.347 136.024 153.812 136.57 154.385 136.964C154.976 137.358 155.701 137.555 156.561 137.555C157.724 137.555 158.682 137.277 159.434 136.722C160.204 136.167 160.768 135.379 161.126 134.359C161.502 133.338 161.663 132.139 161.609 130.76V128.639C161.645 127.457 161.565 126.419 161.368 125.523C161.171 124.61 160.857 123.849 160.428 123.241C160.016 122.632 159.488 122.175 158.843 121.871C158.217 121.549 157.474 121.388 156.614 121.388C155.773 121.388 155.057 121.585 154.466 121.979C153.893 122.372 153.427 122.927 153.069 123.644C152.711 124.342 152.452 125.174 152.291 126.141C152.129 127.09 152.049 128.128 152.049 129.256ZM189.136 144.537C186.773 144.537 184.66 144.17 182.798 143.436C180.936 142.684 179.361 141.655 178.072 140.348C176.801 139.041 175.825 137.537 175.145 135.836C174.482 134.135 174.151 132.336 174.151 130.438V129.417C174.151 127.287 174.446 125.318 175.037 123.509C175.628 121.683 176.505 120.09 177.669 118.729C178.833 117.368 180.292 116.312 182.046 115.56C183.801 114.79 185.842 114.405 188.169 114.405C190.228 114.405 192.072 114.736 193.702 115.399C195.331 116.061 196.709 117.01 197.837 118.246C198.983 119.481 199.852 120.976 200.442 122.73C201.051 124.485 201.355 126.454 201.355 128.639V132.318H177.615V126.651H192.52V125.953C192.538 124.986 192.368 124.163 192.01 123.482C191.67 122.802 191.168 122.283 190.506 121.925C189.843 121.567 189.038 121.388 188.089 121.388C187.104 121.388 186.29 121.603 185.645 122.032C185.018 122.462 184.526 123.053 184.168 123.805C183.828 124.539 183.586 125.389 183.443 126.356C183.3 127.323 183.228 128.343 183.228 129.417V130.438C183.228 131.512 183.371 132.488 183.658 133.365C183.962 134.243 184.392 134.994 184.947 135.621C185.52 136.23 186.2 136.704 186.988 137.044C187.793 137.385 188.707 137.555 189.727 137.555C190.962 137.555 192.18 137.322 193.379 136.856C194.579 136.391 195.608 135.621 196.468 134.547L200.577 139.435C199.986 140.276 199.144 141.091 198.052 141.878C196.978 142.666 195.689 143.311 194.185 143.812C192.681 144.295 190.998 144.537 189.136 144.537ZM231.299 136.749V144H211.534V136.749H231.299ZM214.891 104.898V144H205.464V104.898H214.891ZM244.405 114.942V144H235.328V114.942H244.405ZM234.791 107.45C234.791 106.161 235.256 105.104 236.187 104.281C237.118 103.457 238.326 103.045 239.812 103.045C241.299 103.045 242.507 103.457 243.438 104.281C244.369 105.104 244.834 106.161 244.834 107.45C244.834 108.739 244.369 109.795 243.438 110.619C242.507 111.442 241.299 111.854 239.812 111.854C238.326 111.854 237.118 111.442 236.187 110.619C235.256 109.795 234.791 108.739 234.791 107.45ZM262.264 137.555C263.105 137.555 263.821 137.403 264.412 137.098C265.021 136.776 265.477 136.328 265.782 135.755C266.104 135.165 266.256 134.457 266.238 133.634H274.751C274.769 135.818 274.232 137.734 273.14 139.381C272.066 141.01 270.598 142.281 268.736 143.194C266.892 144.09 264.806 144.537 262.479 144.537C260.205 144.537 258.217 144.17 256.517 143.436C254.816 142.684 253.392 141.646 252.247 140.321C251.119 138.978 250.268 137.411 249.695 135.621C249.14 133.831 248.863 131.888 248.863 129.793V129.176C248.863 127.081 249.14 125.139 249.695 123.348C250.268 121.54 251.119 119.973 252.247 118.648C253.392 117.306 254.807 116.267 256.49 115.533C258.191 114.781 260.169 114.405 262.425 114.405C264.842 114.405 266.972 114.862 268.816 115.775C270.678 116.688 272.138 118.013 273.194 119.75C274.25 121.486 274.769 123.59 274.751 126.061H266.238C266.256 125.183 266.122 124.396 265.835 123.697C265.549 122.999 265.101 122.444 264.493 122.032C263.902 121.603 263.141 121.388 262.21 121.388C261.279 121.388 260.527 121.594 259.954 122.005C259.381 122.417 258.943 122.99 258.638 123.724C258.352 124.44 258.155 125.264 258.047 126.195C257.958 127.126 257.913 128.119 257.913 129.176V129.793C257.913 130.868 257.958 131.879 258.047 132.828C258.155 133.759 258.361 134.583 258.665 135.299C258.969 135.997 259.408 136.552 259.981 136.964C260.554 137.358 261.315 137.555 262.264 137.555ZM287.75 102.723V144H278.699V102.723H287.75ZM306.333 114.942L293.711 129.74L287.105 136.346L283.157 130.599L288.663 123.429L295.484 114.942H306.333ZM296.639 144L288.877 130.76L295.564 126.007L307.005 144H296.639Z" fill="black"/>
<path d="M110.816 65.2515V69.2505H97.8276V65.2515H110.816ZM99.3486 55.1172V80H94.2217V55.1172H99.3486ZM114.473 55.1172V80H109.363V55.1172H114.473ZM128.606 75.8301V67.5928C128.606 67.0003 128.51 66.4933 128.316 66.0718C128.122 65.6388 127.82 65.3027 127.41 65.0635C127.011 64.8242 126.493 64.7046 125.855 64.7046C125.308 64.7046 124.835 64.8014 124.437 64.9951C124.038 65.1774 123.73 65.4451 123.514 65.7983C123.297 66.1401 123.189 66.5446 123.189 67.0117H118.267C118.267 66.2256 118.449 65.4793 118.814 64.7729C119.179 64.0666 119.708 63.4456 120.403 62.9102C121.098 62.3633 121.924 61.936 122.881 61.6284C123.85 61.3208 124.932 61.167 126.128 61.167C127.564 61.167 128.84 61.4062 129.957 61.8848C131.073 62.3633 131.95 63.0811 132.588 64.0381C133.238 64.9951 133.562 66.1914 133.562 67.627V75.5396C133.562 76.5535 133.625 77.3853 133.75 78.0347C133.876 78.6727 134.058 79.231 134.297 79.7095V80H129.324C129.085 79.4987 128.903 78.8721 128.777 78.1201C128.663 77.3568 128.606 76.5934 128.606 75.8301ZM129.256 68.7378L129.29 71.5234H126.539C125.889 71.5234 125.325 71.5975 124.847 71.7456C124.368 71.8937 123.975 72.1045 123.667 72.3779C123.36 72.64 123.132 72.9476 122.984 73.3008C122.847 73.654 122.779 74.0413 122.779 74.4629C122.779 74.8844 122.876 75.2661 123.069 75.6079C123.263 75.9383 123.542 76.2004 123.907 76.394C124.271 76.5763 124.699 76.6675 125.188 76.6675C125.929 76.6675 126.573 76.5194 127.12 76.2231C127.667 75.9269 128.088 75.5623 128.384 75.1294C128.692 74.6965 128.851 74.2863 128.863 73.8989L130.162 75.9839C129.979 76.451 129.729 76.9352 129.41 77.4365C129.102 77.9378 128.709 78.4106 128.23 78.855C127.752 79.2879 127.177 79.6468 126.504 79.9316C125.832 80.2051 125.035 80.3418 124.112 80.3418C122.938 80.3418 121.873 80.1082 120.916 79.6411C119.97 79.1626 119.218 78.5075 118.66 77.6758C118.113 76.8327 117.84 75.8757 117.84 74.8047C117.84 73.8363 118.022 72.9761 118.387 72.2241C118.751 71.4722 119.287 70.8398 119.993 70.3271C120.711 69.8031 121.605 69.41 122.676 69.1479C123.747 68.8745 124.989 68.7378 126.402 68.7378H129.256ZM142.552 53.75V80H137.613V53.75H142.552ZM156.6 75.8301V67.5928C156.6 67.0003 156.503 66.4933 156.309 66.0718C156.115 65.6388 155.813 65.3027 155.403 65.0635C155.005 64.8242 154.486 64.7046 153.848 64.7046C153.301 64.7046 152.828 64.8014 152.43 64.9951C152.031 65.1774 151.723 65.4451 151.507 65.7983C151.29 66.1401 151.182 66.5446 151.182 67.0117H146.26C146.26 66.2256 146.443 65.4793 146.807 64.7729C147.172 64.0666 147.701 63.4456 148.396 62.9102C149.091 62.3633 149.917 61.936 150.875 61.6284C151.843 61.3208 152.925 61.167 154.122 61.167C155.557 61.167 156.833 61.4062 157.95 61.8848C159.066 62.3633 159.944 63.0811 160.582 64.0381C161.231 64.9951 161.556 66.1914 161.556 67.627V75.5396C161.556 76.5535 161.618 77.3853 161.744 78.0347C161.869 78.6727 162.051 79.231 162.291 79.7095V80H157.317C157.078 79.4987 156.896 78.8721 156.771 78.1201C156.657 77.3568 156.6 76.5934 156.6 75.8301ZM157.249 68.7378L157.283 71.5234H154.532C153.882 71.5234 153.318 71.5975 152.84 71.7456C152.361 71.8937 151.968 72.1045 151.661 72.3779C151.353 72.64 151.125 72.9476 150.977 73.3008C150.84 73.654 150.772 74.0413 150.772 74.4629C150.772 74.8844 150.869 75.2661 151.062 75.6079C151.256 75.9383 151.535 76.2004 151.9 76.394C152.264 76.5763 152.692 76.6675 153.182 76.6675C153.922 76.6675 154.566 76.5194 155.113 76.2231C155.66 75.9269 156.081 75.5623 156.377 75.1294C156.685 74.6965 156.845 74.2863 156.856 73.8989L158.155 75.9839C157.972 76.451 157.722 76.9352 157.403 77.4365C157.095 77.9378 156.702 78.4106 156.224 78.855C155.745 79.2879 155.17 79.6468 154.498 79.9316C153.825 80.2051 153.028 80.3418 152.105 80.3418C150.931 80.3418 149.866 80.1082 148.909 79.6411C147.964 79.1626 147.212 78.5075 146.653 77.6758C146.106 76.8327 145.833 75.8757 145.833 74.8047C145.833 73.8363 146.015 72.9761 146.38 72.2241C146.744 71.4722 147.28 70.8398 147.986 70.3271C148.704 69.8031 149.598 69.41 150.669 69.1479C151.74 68.8745 152.982 68.7378 154.395 68.7378H157.249ZM192.369 76.001V80H174.732V76.001H192.369ZM192.112 57.9712L177.005 80H173.399V77.0605L188.626 55.1172H192.112V57.9712ZM190.352 55.1172V59.1333H173.416V55.1172H190.352ZM195.325 53.75H200.247V75.7617L199.751 80H195.325V53.75ZM211.954 70.5664V70.9253C211.954 72.3039 211.806 73.5685 211.509 74.7192C211.224 75.87 210.78 76.8669 210.176 77.71C209.572 78.5417 208.82 79.1911 207.92 79.6582C207.032 80.1139 205.984 80.3418 204.776 80.3418C203.648 80.3418 202.668 80.1139 201.836 79.6582C201.016 79.2025 200.327 78.5588 199.769 77.7271C199.21 76.8953 198.76 75.9212 198.418 74.8047C198.077 73.6882 197.82 72.4691 197.649 71.1475V70.3613C197.82 69.0397 198.077 67.8206 198.418 66.7041C198.76 65.5876 199.21 64.6134 199.769 63.7817C200.327 62.95 201.016 62.3063 201.836 61.8506C202.657 61.3949 203.625 61.167 204.742 61.167C205.961 61.167 207.02 61.4006 207.92 61.8677C208.832 62.3234 209.584 62.9728 210.176 63.8159C210.78 64.6476 211.224 65.6388 211.509 66.7896C211.806 67.9289 211.954 69.1878 211.954 70.5664ZM207.032 70.9253V70.5664C207.032 69.8145 206.975 69.1081 206.861 68.4473C206.758 67.7751 206.576 67.1883 206.314 66.687C206.052 66.1743 205.693 65.7699 205.237 65.4736C204.793 65.1774 204.218 65.0293 203.511 65.0293C202.839 65.0293 202.269 65.1432 201.802 65.3711C201.335 65.599 200.948 65.918 200.64 66.3281C200.344 66.7383 200.122 67.2282 199.974 67.7979C199.826 68.3561 199.734 68.9714 199.7 69.6436V71.8823C199.734 72.7824 199.882 73.5799 200.145 74.2749C200.418 74.9585 200.828 75.4997 201.375 75.8984C201.933 76.2858 202.657 76.4795 203.545 76.4795C204.24 76.4795 204.816 76.3428 205.271 76.0693C205.727 75.7959 206.08 75.4085 206.331 74.9072C206.593 74.4059 206.775 73.8192 206.878 73.147C206.98 72.4634 207.032 71.7228 207.032 70.9253ZM220.208 61.5088V80H215.269V61.5088H220.208ZM214.961 56.6895C214.961 55.9717 215.212 55.3792 215.713 54.9121C216.215 54.445 216.887 54.2114 217.73 54.2114C218.562 54.2114 219.228 54.445 219.729 54.9121C220.242 55.3792 220.499 55.9717 220.499 56.6895C220.499 57.4072 220.242 57.9997 219.729 58.4668C219.228 58.9339 218.562 59.1675 217.73 59.1675C216.887 59.1675 216.215 58.9339 215.713 58.4668C215.212 57.9997 214.961 57.4072 214.961 56.6895ZM224.275 53.75H229.197V75.7617L228.702 80H224.275V53.75ZM240.904 70.5664V70.9253C240.904 72.3039 240.756 73.5685 240.459 74.7192C240.175 75.87 239.73 76.8669 239.126 77.71C238.523 78.5417 237.771 79.1911 236.871 79.6582C235.982 80.1139 234.934 80.3418 233.726 80.3418C232.598 80.3418 231.618 80.1139 230.787 79.6582C229.966 79.2025 229.277 78.5588 228.719 77.7271C228.16 76.8953 227.71 75.9212 227.369 74.8047C227.027 73.6882 226.771 72.4691 226.6 71.1475V70.3613C226.771 69.0397 227.027 67.8206 227.369 66.7041C227.71 65.5876 228.16 64.6134 228.719 63.7817C229.277 62.95 229.966 62.3063 230.787 61.8506C231.607 61.3949 232.575 61.167 233.692 61.167C234.911 61.167 235.971 61.4006 236.871 61.8677C237.782 62.3234 238.534 62.9728 239.126 63.8159C239.73 64.6476 240.175 65.6388 240.459 66.7896C240.756 67.9289 240.904 69.1878 240.904 70.5664ZM235.982 70.9253V70.5664C235.982 69.8145 235.925 69.1081 235.811 68.4473C235.708 67.7751 235.526 67.1883 235.264 66.687C235.002 66.1743 234.643 65.7699 234.188 65.4736C233.743 65.1774 233.168 65.0293 232.461 65.0293C231.789 65.0293 231.22 65.1432 230.752 65.3711C230.285 65.599 229.898 65.918 229.59 66.3281C229.294 66.7383 229.072 67.2282 228.924 67.7979C228.776 68.3561 228.685 68.9714 228.65 69.6436V71.8823C228.685 72.7824 228.833 73.5799 229.095 74.2749C229.368 74.9585 229.778 75.4997 230.325 75.8984C230.883 76.2858 231.607 76.4795 232.496 76.4795C233.191 76.4795 233.766 76.3428 234.222 76.0693C234.677 75.7959 235.031 75.4085 235.281 74.9072C235.543 74.4059 235.726 73.8192 235.828 73.147C235.931 72.4634 235.982 71.7228 235.982 70.9253Z" fill="#888888"/>
<rect x="92" y="181" width="1179" height="80" rx="13.3333" fill="#CCCCCC"/>
<rect x="107" y="196.333" width="208" height="49.3333" rx="4.66667" fill="#888888" stroke="#888888" stroke-width="4"/>
<path d="M150.833 213.167H156.802C157.969 213.167 158.983 213.34 159.844 213.687C160.705 214.035 161.368 214.549 161.833 215.229C162.306 215.91 162.542 216.75 162.542 217.75C162.542 218.618 162.406 219.344 162.135 219.927C161.865 220.51 161.486 220.993 161 221.375C160.521 221.75 159.962 222.059 159.323 222.302L158.125 222.979H153.115L153.094 220.156H156.802C157.267 220.156 157.653 220.073 157.958 219.906C158.264 219.74 158.493 219.503 158.646 219.198C158.806 218.885 158.885 218.514 158.885 218.083C158.885 217.646 158.806 217.271 158.646 216.958C158.486 216.646 158.25 216.406 157.937 216.24C157.632 216.073 157.253 215.99 156.802 215.99H154.49V228.333H150.833V213.167ZM159.135 228.333L155.781 221.625L159.656 221.604L163.052 228.177V228.333H159.135ZM170.042 228.542C169.125 228.542 168.306 228.399 167.583 228.115C166.861 227.823 166.25 227.424 165.75 226.917C165.257 226.41 164.878 225.826 164.615 225.167C164.358 224.507 164.229 223.809 164.229 223.073V222.677C164.229 221.851 164.344 221.087 164.573 220.385C164.802 219.677 165.142 219.059 165.594 218.531C166.045 218.003 166.611 217.594 167.292 217.302C167.972 217.003 168.764 216.854 169.667 216.854C170.465 216.854 171.181 216.983 171.813 217.24C172.444 217.497 172.979 217.865 173.417 218.344C173.861 218.823 174.198 219.403 174.427 220.083C174.663 220.764 174.781 221.528 174.781 222.375V223.802H165.573V221.604H171.354V221.333C171.361 220.958 171.295 220.639 171.156 220.375C171.024 220.111 170.83 219.91 170.573 219.771C170.316 219.632 170.003 219.562 169.635 219.562C169.253 219.562 168.938 219.646 168.688 219.812C168.444 219.979 168.253 220.208 168.115 220.5C167.983 220.785 167.889 221.115 167.833 221.49C167.778 221.865 167.75 222.26 167.75 222.677V223.073C167.75 223.49 167.806 223.868 167.917 224.208C168.035 224.549 168.201 224.84 168.417 225.083C168.639 225.319 168.903 225.503 169.208 225.635C169.521 225.767 169.875 225.833 170.271 225.833C170.75 225.833 171.222 225.743 171.688 225.562C172.153 225.382 172.552 225.083 172.885 224.667L174.479 226.562C174.25 226.889 173.924 227.205 173.5 227.51C173.083 227.816 172.583 228.066 172 228.26C171.417 228.448 170.764 228.542 170.042 228.542ZM182.063 225.5V220.854C182.063 220.535 182.017 220.26 181.927 220.031C181.837 219.802 181.694 219.625 181.5 219.5C181.306 219.368 181.045 219.302 180.719 219.302C180.455 219.302 180.229 219.347 180.042 219.437C179.854 219.528 179.712 219.663 179.615 219.844C179.517 220.024 179.469 220.253 179.469 220.531H175.958C175.958 220.01 176.073 219.528 176.302 219.083C176.538 218.632 176.872 218.24 177.302 217.906C177.74 217.573 178.26 217.316 178.865 217.135C179.476 216.948 180.156 216.854 180.906 216.854C181.802 216.854 182.601 217.003 183.302 217.302C184.01 217.601 184.569 218.049 184.979 218.646C185.389 219.236 185.594 219.979 185.594 220.875V225.49C185.594 226.226 185.635 226.785 185.719 227.167C185.802 227.542 185.92 227.872 186.073 228.156V228.333H182.552C182.385 227.986 182.26 227.562 182.177 227.062C182.101 226.556 182.063 226.035 182.063 225.5ZM182.49 221.448L182.51 223.323H180.958C180.632 223.323 180.354 223.368 180.125 223.458C179.903 223.549 179.722 223.674 179.583 223.833C179.451 223.986 179.354 224.16 179.292 224.354C179.236 224.549 179.208 224.753 179.208 224.969C179.208 225.177 179.257 225.365 179.354 225.531C179.458 225.691 179.597 225.816 179.771 225.906C179.944 225.997 180.139 226.042 180.354 226.042C180.743 226.042 181.073 225.969 181.344 225.823C181.622 225.67 181.833 225.486 181.979 225.271C182.125 225.056 182.198 224.854 182.198 224.667L182.969 226.104C182.83 226.382 182.67 226.663 182.49 226.948C182.316 227.233 182.097 227.497 181.833 227.74C181.576 227.976 181.26 228.17 180.885 228.323C180.51 228.469 180.056 228.542 179.521 228.542C178.826 228.542 178.188 228.399 177.604 228.115C177.028 227.83 176.566 227.434 176.219 226.927C175.872 226.413 175.698 225.823 175.698 225.156C175.698 224.573 175.802 224.052 176.01 223.594C176.226 223.135 176.549 222.747 176.979 222.427C177.41 222.108 177.958 221.865 178.625 221.698C179.292 221.531 180.076 221.448 180.979 221.448H182.49ZM192.302 225.833C192.628 225.833 192.906 225.774 193.135 225.656C193.372 225.531 193.549 225.358 193.667 225.135C193.792 224.906 193.851 224.632 193.844 224.312H197.146C197.153 225.16 196.944 225.903 196.521 226.542C196.104 227.174 195.535 227.667 194.812 228.021C194.097 228.368 193.288 228.542 192.385 228.542C191.503 228.542 190.733 228.399 190.073 228.115C189.413 227.823 188.861 227.42 188.417 226.906C187.979 226.385 187.649 225.778 187.427 225.083C187.212 224.389 187.104 223.635 187.104 222.823V222.583C187.104 221.771 187.212 221.017 187.427 220.323C187.649 219.622 187.979 219.014 188.417 218.5C188.861 217.979 189.41 217.576 190.062 217.292C190.722 217 191.49 216.854 192.365 216.854C193.302 216.854 194.128 217.031 194.844 217.385C195.566 217.74 196.132 218.253 196.542 218.927C196.951 219.601 197.153 220.417 197.146 221.375H193.844C193.851 221.035 193.799 220.729 193.687 220.458C193.576 220.187 193.403 219.972 193.167 219.812C192.937 219.646 192.642 219.562 192.281 219.562C191.92 219.562 191.628 219.642 191.406 219.802C191.184 219.962 191.014 220.184 190.896 220.469C190.785 220.747 190.708 221.066 190.667 221.427C190.632 221.788 190.615 222.174 190.615 222.583V222.823C190.615 223.24 190.632 223.632 190.667 224C190.708 224.361 190.788 224.681 190.906 224.958C191.024 225.229 191.194 225.444 191.417 225.604C191.639 225.757 191.934 225.833 192.302 225.833ZM204.583 217.062V219.5H197.792V217.062H204.583ZM199.219 214.26H202.729V224.656C202.729 224.955 202.764 225.187 202.833 225.354C202.903 225.514 203.021 225.628 203.188 225.698C203.361 225.76 203.59 225.792 203.875 225.792C204.076 225.792 204.243 225.788 204.375 225.781C204.507 225.767 204.632 225.75 204.75 225.729V228.24C204.451 228.337 204.139 228.41 203.813 228.458C203.486 228.514 203.139 228.542 202.771 228.542C202.021 228.542 201.378 228.424 200.844 228.187C200.316 227.951 199.913 227.58 199.635 227.073C199.358 226.566 199.219 225.906 199.219 225.094V214.26ZM224.125 213.167V228.333H220.479L215.115 218.896V228.333H211.458V213.167H215.115L220.479 222.604V213.167H224.125ZM232.125 225.5V220.854C232.125 220.535 232.08 220.26 231.99 220.031C231.899 219.802 231.757 219.625 231.563 219.5C231.368 219.368 231.108 219.302 230.781 219.302C230.517 219.302 230.292 219.347 230.104 219.437C229.917 219.528 229.774 219.663 229.677 219.844C229.58 220.024 229.531 220.253 229.531 220.531H226.021C226.021 220.01 226.135 219.528 226.365 219.083C226.601 218.632 226.934 218.24 227.365 217.906C227.802 217.573 228.323 217.316 228.927 217.135C229.538 216.948 230.219 216.854 230.969 216.854C231.865 216.854 232.663 217.003 233.365 217.302C234.073 217.601 234.632 218.049 235.042 218.646C235.451 219.236 235.656 219.979 235.656 220.875V225.49C235.656 226.226 235.698 226.785 235.781 227.167C235.865 227.542 235.983 227.872 236.135 228.156V228.333H232.615C232.448 227.986 232.323 227.562 232.24 227.062C232.163 226.556 232.125 226.035 232.125 225.5ZM232.552 221.448L232.573 223.323H231.021C230.694 223.323 230.417 223.368 230.188 223.458C229.965 223.549 229.785 223.674 229.646 223.833C229.514 223.986 229.417 224.16 229.354 224.354C229.299 224.549 229.271 224.753 229.271 224.969C229.271 225.177 229.319 225.365 229.417 225.531C229.521 225.691 229.66 225.816 229.833 225.906C230.007 225.997 230.201 226.042 230.417 226.042C230.806 226.042 231.135 225.969 231.406 225.823C231.684 225.67 231.896 225.486 232.042 225.271C232.188 225.056 232.26 224.854 232.26 224.667L233.031 226.104C232.892 226.382 232.733 226.663 232.552 226.948C232.378 227.233 232.16 227.497 231.896 227.74C231.639 227.976 231.323 228.17 230.948 228.323C230.573 228.469 230.118 228.542 229.583 228.542C228.889 228.542 228.25 228.399 227.667 228.115C227.09 227.83 226.628 227.434 226.281 226.927C225.934 226.413 225.76 225.823 225.76 225.156C225.76 224.573 225.865 224.052 226.073 223.594C226.288 223.135 226.611 222.747 227.042 222.427C227.472 222.108 228.021 221.865 228.688 221.698C229.354 221.531 230.139 221.448 231.042 221.448H232.552ZM243.542 217.062V219.5H236.75V217.062H243.542ZM238.177 214.26H241.687V224.656C241.687 224.955 241.722 225.187 241.792 225.354C241.861 225.514 241.979 225.628 242.146 225.698C242.319 225.76 242.549 225.792 242.833 225.792C243.035 225.792 243.201 225.788 243.333 225.781C243.465 225.767 243.59 225.75 243.708 225.729V228.24C243.41 228.337 243.097 228.41 242.771 228.458C242.444 228.514 242.097 228.542 241.729 228.542C240.979 228.542 240.337 228.424 239.802 228.187C239.274 227.951 238.872 227.58 238.594 227.073C238.316 226.566 238.177 225.906 238.177 225.094V214.26ZM248.646 217.062V228.333H245.125V217.062H248.646ZM244.917 214.156C244.917 213.656 245.097 213.247 245.458 212.927C245.819 212.608 246.288 212.448 246.865 212.448C247.441 212.448 247.91 212.608 248.271 212.927C248.632 213.247 248.813 213.656 248.813 214.156C248.813 214.656 248.632 215.066 248.271 215.385C247.91 215.705 247.441 215.865 246.865 215.865C246.288 215.865 245.819 215.705 245.458 215.385C245.097 215.066 244.917 214.656 244.917 214.156ZM254.875 225.927L257.094 217.062H260.792L257.104 228.333H254.917L254.875 225.927ZM253.563 217.062L255.75 225.927L255.729 228.333H253.531L249.854 217.062H253.563ZM267.146 228.542C266.229 228.542 265.41 228.399 264.688 228.115C263.965 227.823 263.354 227.424 262.854 226.917C262.361 226.41 261.983 225.826 261.719 225.167C261.462 224.507 261.333 223.809 261.333 223.073V222.677C261.333 221.851 261.448 221.087 261.677 220.385C261.906 219.677 262.247 219.059 262.698 218.531C263.149 218.003 263.715 217.594 264.396 217.302C265.076 217.003 265.868 216.854 266.771 216.854C267.569 216.854 268.285 216.983 268.917 217.24C269.549 217.497 270.083 217.865 270.521 218.344C270.965 218.823 271.302 219.403 271.531 220.083C271.767 220.764 271.885 221.528 271.885 222.375V223.802H262.677V221.604H268.458V221.333C268.465 220.958 268.399 220.639 268.26 220.375C268.128 220.111 267.934 219.91 267.677 219.771C267.42 219.632 267.108 219.562 266.74 219.562C266.358 219.562 266.042 219.646 265.792 219.812C265.549 219.979 265.358 220.208 265.219 220.5C265.087 220.785 264.993 221.115 264.938 221.49C264.882 221.865 264.854 222.26 264.854 222.677V223.073C264.854 223.49 264.91 223.868 265.021 224.208C265.139 224.549 265.306 224.84 265.521 225.083C265.743 225.319 266.007 225.503 266.313 225.635C266.625 225.767 266.979 225.833 267.375 225.833C267.854 225.833 268.326 225.743 268.792 225.562C269.257 225.382 269.656 225.083 269.99 224.667L271.583 226.562C271.354 226.889 271.028 227.205 270.604 227.51C270.188 227.816 269.688 228.066 269.104 228.26C268.521 228.448 267.868 228.542 267.146 228.542Z" fill="white"/>
<rect x="339" y="196.333" width="208" height="49.3333" rx="4.66667" fill="#888888" stroke="#888888" stroke-width="4"/>
<path d="M418.844 213.167V228.333H415.198L409.833 218.896V228.333H406.177V213.167H409.833L415.198 222.604V213.167H418.844ZM420.552 222.812V222.594C420.552 221.767 420.67 221.007 420.906 220.312C421.142 219.611 421.49 219.003 421.948 218.49C422.406 217.976 422.972 217.576 423.646 217.292C424.319 217 425.097 216.854 425.979 216.854C426.868 216.854 427.649 217 428.323 217.292C429.003 217.576 429.573 217.976 430.031 218.49C430.49 219.003 430.837 219.611 431.073 220.312C431.309 221.007 431.427 221.767 431.427 222.594V222.812C431.427 223.632 431.309 224.392 431.073 225.094C430.837 225.788 430.49 226.396 430.031 226.917C429.573 227.431 429.007 227.83 428.333 228.115C427.66 228.399 426.882 228.542 426 228.542C425.118 228.542 424.337 228.399 423.656 228.115C422.976 227.83 422.406 227.431 421.948 226.917C421.49 226.396 421.142 225.788 420.906 225.094C420.67 224.392 420.552 223.632 420.552 222.812ZM424.062 222.594V222.812C424.062 223.236 424.094 223.632 424.156 224C424.219 224.368 424.323 224.691 424.469 224.969C424.615 225.24 424.812 225.451 425.062 225.604C425.312 225.757 425.625 225.833 426 225.833C426.368 225.833 426.674 225.757 426.917 225.604C427.167 225.451 427.365 225.24 427.51 224.969C427.656 224.691 427.76 224.368 427.823 224C427.885 223.632 427.917 223.236 427.917 222.812V222.594C427.917 222.184 427.885 221.799 427.823 221.437C427.76 221.069 427.656 220.747 427.51 220.469C427.365 220.184 427.167 219.962 426.917 219.802C426.667 219.642 426.354 219.562 425.979 219.562C425.611 219.562 425.302 219.642 425.052 219.802C424.809 219.962 424.615 220.184 424.469 220.469C424.323 220.747 424.219 221.069 424.156 221.437C424.094 221.799 424.062 222.184 424.062 222.594ZM439.469 225.75V212.333H443V228.333H439.833L439.469 225.75ZM432.552 222.833V222.615C432.552 221.76 432.646 220.983 432.833 220.281C433.021 219.573 433.299 218.965 433.667 218.458C434.035 217.944 434.493 217.549 435.042 217.271C435.59 216.993 436.222 216.854 436.938 216.854C437.576 216.854 438.135 217.003 438.615 217.302C439.094 217.594 439.503 218.003 439.844 218.531C440.184 219.059 440.462 219.677 440.677 220.385C440.892 221.087 441.056 221.844 441.167 222.656V222.917C441.056 223.681 440.892 224.403 440.677 225.083C440.462 225.757 440.184 226.354 439.844 226.875C439.503 227.396 439.09 227.806 438.604 228.104C438.125 228.396 437.563 228.542 436.917 228.542C436.201 228.542 435.569 228.399 435.021 228.115C434.479 227.83 434.024 227.431 433.656 226.917C433.295 226.403 433.021 225.799 432.833 225.104C432.646 224.41 432.552 223.653 432.552 222.833ZM436.063 222.615V222.833C436.063 223.257 436.09 223.649 436.146 224.01C436.201 224.372 436.295 224.691 436.427 224.969C436.566 225.24 436.747 225.451 436.969 225.604C437.198 225.757 437.479 225.833 437.813 225.833C438.264 225.833 438.635 225.726 438.927 225.51C439.226 225.295 439.444 224.99 439.583 224.594C439.729 224.198 439.792 223.733 439.771 223.198V222.375C439.785 221.917 439.753 221.514 439.677 221.167C439.601 220.812 439.479 220.517 439.313 220.281C439.153 220.045 438.948 219.868 438.698 219.75C438.455 219.625 438.167 219.562 437.833 219.562C437.507 219.562 437.229 219.639 437 219.792C436.778 219.944 436.597 220.16 436.458 220.437C436.319 220.708 436.219 221.031 436.156 221.406C436.094 221.774 436.063 222.177 436.063 222.615ZM450.448 228.542C449.531 228.542 448.712 228.399 447.99 228.115C447.267 227.823 446.656 227.424 446.156 226.917C445.663 226.41 445.285 225.826 445.021 225.167C444.764 224.507 444.635 223.809 444.635 223.073V222.677C444.635 221.851 444.75 221.087 444.979 220.385C445.208 219.677 445.549 219.059 446 218.531C446.451 218.003 447.017 217.594 447.698 217.302C448.378 217.003 449.17 216.854 450.073 216.854C450.872 216.854 451.587 216.983 452.219 217.24C452.851 217.497 453.385 217.865 453.823 218.344C454.267 218.823 454.604 219.403 454.833 220.083C455.069 220.764 455.188 221.528 455.188 222.375V223.802H445.979V221.604H451.76V221.333C451.767 220.958 451.701 220.639 451.563 220.375C451.431 220.111 451.236 219.91 450.979 219.771C450.722 219.632 450.41 219.562 450.042 219.562C449.66 219.562 449.344 219.646 449.094 219.812C448.851 219.979 448.66 220.208 448.521 220.5C448.389 220.785 448.295 221.115 448.24 221.49C448.184 221.865 448.156 222.26 448.156 222.677V223.073C448.156 223.49 448.212 223.868 448.323 224.208C448.441 224.549 448.608 224.84 448.823 225.083C449.045 225.319 449.309 225.503 449.615 225.635C449.927 225.767 450.281 225.833 450.677 225.833C451.156 225.833 451.628 225.743 452.094 225.562C452.559 225.382 452.958 225.083 453.292 224.667L454.885 226.562C454.656 226.889 454.33 227.205 453.906 227.51C453.49 227.816 452.99 228.066 452.406 228.26C451.823 228.448 451.17 228.542 450.448 228.542ZM462.813 223.573V213.167H466.458V223.573C466.458 224.587 466.226 225.465 465.76 226.208C465.302 226.951 464.677 227.528 463.885 227.937C463.101 228.34 462.219 228.542 461.24 228.542C460.226 228.542 459.323 228.372 458.531 228.031C457.747 227.691 457.128 227.167 456.677 226.458C456.233 225.75 456.01 224.847 456.01 223.75H459.677C459.677 224.264 459.736 224.667 459.854 224.958C459.972 225.243 460.146 225.444 460.375 225.562C460.611 225.674 460.899 225.729 461.24 225.729C461.573 225.729 461.854 225.646 462.083 225.479C462.319 225.306 462.5 225.059 462.625 224.74C462.75 224.413 462.813 224.024 462.813 223.573ZM476.594 224.302C476.594 224.066 476.559 223.854 476.49 223.667C476.42 223.472 476.292 223.292 476.104 223.125C475.917 222.958 475.646 222.792 475.292 222.625C474.944 222.451 474.486 222.271 473.917 222.083C473.25 221.861 472.608 221.611 471.99 221.333C471.372 221.049 470.819 220.719 470.333 220.344C469.847 219.962 469.462 219.517 469.177 219.01C468.892 218.497 468.75 217.899 468.75 217.219C468.75 216.566 468.896 215.979 469.188 215.458C469.479 214.931 469.885 214.483 470.406 214.115C470.934 213.74 471.552 213.455 472.26 213.26C472.969 213.059 473.743 212.958 474.583 212.958C475.694 212.958 476.674 213.153 477.521 213.542C478.375 213.924 479.042 214.469 479.521 215.177C480.007 215.878 480.25 216.708 480.25 217.667H476.615C476.615 217.285 476.535 216.948 476.375 216.656C476.222 216.365 475.99 216.135 475.677 215.969C475.365 215.802 474.972 215.719 474.5 215.719C474.042 215.719 473.656 215.788 473.344 215.927C473.031 216.066 472.795 216.253 472.635 216.49C472.476 216.719 472.396 216.972 472.396 217.25C472.396 217.479 472.458 217.687 472.583 217.875C472.715 218.056 472.899 218.226 473.135 218.385C473.378 218.545 473.67 218.698 474.01 218.844C474.358 218.99 474.747 219.132 475.177 219.271C475.983 219.528 476.698 219.816 477.323 220.135C477.955 220.448 478.486 220.806 478.917 221.208C479.354 221.604 479.684 222.056 479.906 222.562C480.135 223.069 480.25 223.642 480.25 224.281C480.25 224.962 480.118 225.566 479.854 226.094C479.59 226.622 479.212 227.069 478.719 227.437C478.226 227.799 477.635 228.073 476.948 228.26C476.26 228.448 475.493 228.542 474.646 228.542C473.868 228.542 473.101 228.444 472.344 228.25C471.594 228.049 470.913 227.743 470.302 227.333C469.691 226.917 469.201 226.385 468.833 225.74C468.472 225.087 468.292 224.312 468.292 223.417H471.958C471.958 223.861 472.017 224.236 472.135 224.542C472.253 224.847 472.427 225.094 472.656 225.281C472.885 225.462 473.167 225.594 473.5 225.677C473.833 225.753 474.215 225.792 474.646 225.792C475.111 225.792 475.486 225.726 475.771 225.594C476.056 225.455 476.264 225.274 476.396 225.052C476.528 224.823 476.594 224.573 476.594 224.302Z" fill="white"/>
<rect x="571" y="196.333" width="208" height="49.3333" rx="4.66667" fill="#888888" stroke="#888888" stroke-width="4"/>
<path d="M630.656 213.167H633.635L637.021 223.719L640.406 213.167H643.385L638.229 228.333H635.813L630.656 213.167ZM628.844 213.167H631.927L632.5 224.792V228.333H628.844V213.167ZM642.115 213.167H645.208V228.333H641.542V224.792L642.115 213.167ZM646.948 222.812V222.594C646.948 221.767 647.066 221.007 647.302 220.312C647.538 219.611 647.885 219.003 648.344 218.49C648.802 217.976 649.368 217.576 650.042 217.292C650.715 217 651.493 216.854 652.375 216.854C653.264 216.854 654.045 217 654.719 217.292C655.399 217.576 655.969 217.976 656.427 218.49C656.885 219.003 657.233 219.611 657.469 220.312C657.705 221.007 657.823 221.767 657.823 222.594V222.812C657.823 223.632 657.705 224.392 657.469 225.094C657.233 225.788 656.885 226.396 656.427 226.917C655.969 227.431 655.403 227.83 654.729 228.115C654.056 228.399 653.278 228.542 652.396 228.542C651.514 228.542 650.733 228.399 650.052 228.115C649.372 227.83 648.802 227.431 648.344 226.917C647.885 226.396 647.538 225.788 647.302 225.094C647.066 224.392 646.948 223.632 646.948 222.812ZM650.458 222.594V222.812C650.458 223.236 650.49 223.632 650.552 224C650.615 224.368 650.719 224.691 650.865 224.969C651.01 225.24 651.208 225.451 651.458 225.604C651.708 225.757 652.021 225.833 652.396 225.833C652.764 225.833 653.069 225.757 653.313 225.604C653.563 225.451 653.76 225.24 653.906 224.969C654.052 224.691 654.156 224.368 654.219 224C654.281 223.632 654.313 223.236 654.313 222.812V222.594C654.313 222.184 654.281 221.799 654.219 221.437C654.156 221.069 654.052 220.747 653.906 220.469C653.76 220.184 653.563 219.962 653.313 219.802C653.063 219.642 652.75 219.562 652.375 219.562C652.007 219.562 651.698 219.642 651.448 219.802C651.205 219.962 651.01 220.184 650.865 220.469C650.719 220.747 650.615 221.069 650.552 221.437C650.49 221.799 650.458 222.184 650.458 222.594ZM662.833 219.469V228.333H659.323V217.062H662.615L662.833 219.469ZM662.417 222.312L661.594 222.333C661.594 221.472 661.698 220.705 661.906 220.031C662.115 219.351 662.41 218.774 662.792 218.302C663.174 217.83 663.628 217.472 664.156 217.229C664.691 216.979 665.285 216.854 665.938 216.854C666.458 216.854 666.934 216.931 667.365 217.083C667.802 217.236 668.177 217.483 668.49 217.823C668.809 218.163 669.052 218.615 669.219 219.177C669.392 219.733 669.479 220.42 669.479 221.24V228.333H665.948V221.229C665.948 220.778 665.885 220.434 665.76 220.198C665.635 219.955 665.455 219.788 665.219 219.698C664.983 219.608 664.694 219.562 664.354 219.562C663.993 219.562 663.688 219.632 663.438 219.771C663.188 219.91 662.986 220.104 662.833 220.354C662.688 220.597 662.58 220.885 662.51 221.219C662.448 221.552 662.417 221.917 662.417 222.312ZM678.51 217.062H681.698V227.896C681.698 228.937 681.458 229.819 680.979 230.542C680.5 231.271 679.83 231.823 678.969 232.198C678.115 232.58 677.115 232.771 675.969 232.771C675.462 232.771 674.944 232.705 674.417 232.573C673.889 232.448 673.396 232.26 672.938 232.01C672.479 231.76 672.094 231.451 671.781 231.083L673.25 229.021C673.535 229.34 673.892 229.611 674.323 229.833C674.753 230.062 675.26 230.177 675.844 230.177C676.351 230.177 676.774 230.087 677.115 229.906C677.462 229.726 677.726 229.462 677.906 229.115C678.087 228.774 678.177 228.361 678.177 227.875V219.729L678.51 217.062ZM671.021 222.833V222.615C671.021 221.76 671.125 220.983 671.333 220.281C671.549 219.573 671.854 218.965 672.25 218.458C672.653 217.944 673.139 217.549 673.708 217.271C674.278 216.993 674.92 216.854 675.635 216.854C676.406 216.854 677.038 217.003 677.531 217.302C678.031 217.594 678.431 218.003 678.729 218.531C679.035 219.059 679.271 219.677 679.438 220.385C679.611 221.087 679.757 221.844 679.875 222.656V222.917C679.757 223.681 679.594 224.403 679.385 225.083C679.184 225.757 678.92 226.354 678.594 226.875C678.267 227.396 677.858 227.806 677.365 228.104C676.878 228.396 676.295 228.542 675.615 228.542C674.906 228.542 674.267 228.399 673.698 228.115C673.135 227.83 672.653 227.431 672.25 226.917C671.854 226.403 671.549 225.799 671.333 225.104C671.125 224.41 671.021 223.653 671.021 222.833ZM674.531 222.615V222.833C674.531 223.257 674.569 223.649 674.646 224.01C674.729 224.372 674.854 224.691 675.021 224.969C675.188 225.24 675.392 225.451 675.635 225.604C675.885 225.757 676.177 225.833 676.51 225.833C677.017 225.833 677.427 225.726 677.74 225.51C678.052 225.295 678.278 224.99 678.417 224.594C678.556 224.198 678.615 223.733 678.594 223.198V222.375C678.608 221.917 678.576 221.514 678.5 221.167C678.424 220.812 678.302 220.517 678.135 220.281C677.976 220.045 677.76 219.868 677.49 219.75C677.226 219.625 676.906 219.562 676.531 219.562C676.205 219.562 675.917 219.639 675.667 219.792C675.417 219.944 675.208 220.16 675.042 220.437C674.875 220.708 674.747 221.031 674.656 221.406C674.573 221.774 674.531 222.177 674.531 222.615ZM683.281 222.812V222.594C683.281 221.767 683.399 221.007 683.635 220.312C683.872 219.611 684.219 219.003 684.677 218.49C685.135 217.976 685.701 217.576 686.375 217.292C687.049 217 687.826 216.854 688.708 216.854C689.597 216.854 690.378 217 691.052 217.292C691.733 217.576 692.302 217.976 692.76 218.49C693.219 219.003 693.566 219.611 693.802 220.312C694.038 221.007 694.156 221.767 694.156 222.594V222.812C694.156 223.632 694.038 224.392 693.802 225.094C693.566 225.788 693.219 226.396 692.76 226.917C692.302 227.431 691.736 227.83 691.063 228.115C690.389 228.399 689.611 228.542 688.729 228.542C687.847 228.542 687.066 228.399 686.385 228.115C685.705 227.83 685.135 227.431 684.677 226.917C684.219 226.396 683.872 225.788 683.635 225.094C683.399 224.392 683.281 223.632 683.281 222.812ZM686.792 222.594V222.812C686.792 223.236 686.823 223.632 686.885 224C686.948 224.368 687.052 224.691 687.198 224.969C687.344 225.24 687.542 225.451 687.792 225.604C688.042 225.757 688.354 225.833 688.729 225.833C689.097 225.833 689.403 225.757 689.646 225.604C689.896 225.451 690.094 225.24 690.24 224.969C690.385 224.691 690.49 224.368 690.552 224C690.615 223.632 690.646 223.236 690.646 222.812V222.594C690.646 222.184 690.615 221.799 690.552 221.437C690.49 221.069 690.385 220.747 690.24 220.469C690.094 220.184 689.896 219.962 689.646 219.802C689.396 219.642 689.083 219.562 688.708 219.562C688.34 219.562 688.031 219.642 687.781 219.802C687.538 219.962 687.344 220.184 687.198 220.469C687.052 220.747 686.948 221.069 686.885 221.437C686.823 221.799 686.792 222.184 686.792 222.594ZM700.813 228.333H697.448L697.469 225.521H700.813C701.507 225.521 702.094 225.354 702.573 225.021C703.059 224.687 703.427 224.191 703.677 223.531C703.934 222.865 704.063 222.045 704.063 221.073V220.417C704.063 219.687 703.99 219.049 703.844 218.5C703.705 217.944 703.497 217.483 703.219 217.115C702.941 216.74 702.594 216.458 702.177 216.271C701.767 216.083 701.295 215.99 700.76 215.99H697.385V213.167H700.76C701.788 213.167 702.729 213.344 703.583 213.698C704.444 214.045 705.188 214.545 705.813 215.198C706.444 215.844 706.931 216.611 707.271 217.5C707.618 218.382 707.792 219.361 707.792 220.437V221.073C707.792 222.142 707.618 223.122 707.271 224.01C706.931 224.899 706.448 225.667 705.823 226.312C705.198 226.958 704.458 227.458 703.604 227.812C702.757 228.16 701.826 228.333 700.813 228.333ZM699.542 213.167V228.333H695.885V213.167H699.542ZM715.885 221.885H711.979L711.958 219.49H715.125C715.694 219.49 716.149 219.427 716.49 219.302C716.83 219.17 717.076 218.979 717.229 218.729C717.389 218.479 717.469 218.167 717.469 217.792C717.469 217.361 717.389 217.014 717.229 216.75C717.069 216.486 716.816 216.295 716.469 216.177C716.128 216.052 715.688 215.99 715.146 215.99H713.354V228.333H709.698V213.167H715.146C716.083 213.167 716.92 213.253 717.656 213.427C718.392 213.594 719.017 213.851 719.531 214.198C720.052 214.545 720.448 214.983 720.719 215.51C720.99 216.031 721.125 216.646 721.125 217.354C721.125 217.972 720.993 218.552 720.729 219.094C720.465 219.635 720.024 220.076 719.406 220.417C718.795 220.75 717.958 220.924 716.896 220.937L715.885 221.885ZM715.74 228.333H711.094L712.344 225.521H715.74C716.24 225.521 716.639 225.444 716.938 225.292C717.243 225.132 717.462 224.924 717.594 224.667C717.733 224.403 717.802 224.111 717.802 223.792C717.802 223.403 717.736 223.066 717.604 222.781C717.479 222.497 717.278 222.278 717 222.125C716.722 221.965 716.351 221.885 715.885 221.885H712.813L712.833 219.49H716.51L717.365 220.448C718.378 220.406 719.181 220.549 719.771 220.875C720.368 221.201 720.795 221.632 721.052 222.167C721.309 222.701 721.438 223.26 721.438 223.844C721.438 224.837 721.222 225.667 720.792 226.333C720.368 227 719.733 227.5 718.885 227.833C718.038 228.167 716.99 228.333 715.74 228.333Z" fill="white"/>
</svg>
