<svg width="1363" height="167" viewBox="0 0 1363 167" fill="none" xmlns="http://www.w3.org/2000/svg">
<rect width="1363" height="167" rx="15" fill="#F0F0F0"/>
<path d="M0 15C0 6.71573 6.71573 0 15 0H37V167H15C6.71573 167 0 160.284 0 152V15Z" fill="#424241"/>
<path d="M100.906 50.9219L93.3945 48.2383V45.0859L103.602 49.375V51.6367L100.906 50.9219ZM93.3945 53.1719L100.918 50.4297L103.602 49.7852V52.0352L93.3945 56.3242V53.1719ZM120.781 53.5352C120.781 53.2305 120.734 52.957 120.641 52.7148C120.555 52.4648 120.391 52.2383 120.148 52.0352C119.906 51.8242 119.566 51.6172 119.129 51.4141C118.691 51.2109 118.125 51 117.43 50.7812C116.656 50.5312 115.922 50.25 115.227 49.9375C114.539 49.625 113.93 49.2617 113.398 48.8477C112.875 48.4258 112.461 47.9375 112.156 47.3828C111.859 46.8281 111.711 46.1836 111.711 45.4492C111.711 44.7383 111.867 44.0938 112.18 43.5156C112.492 42.9297 112.93 42.4297 113.492 42.0156C114.055 41.5938 114.719 41.2695 115.484 41.043C116.258 40.8164 117.105 40.7031 118.027 40.7031C119.285 40.7031 120.383 40.9297 121.32 41.3828C122.258 41.8359 122.984 42.457 123.5 43.2461C124.023 44.0352 124.285 44.9375 124.285 45.9531H120.793C120.793 45.4531 120.688 45.0156 120.477 44.6406C120.273 44.2578 119.961 43.957 119.539 43.7383C119.125 43.5195 118.602 43.4102 117.969 43.4102C117.359 43.4102 116.852 43.5039 116.445 43.6914C116.039 43.8711 115.734 44.1172 115.531 44.4297C115.328 44.7344 115.227 45.0781 115.227 45.4609C115.227 45.75 115.297 46.0117 115.438 46.2461C115.586 46.4805 115.805 46.6992 116.094 46.9023C116.383 47.1055 116.738 47.2969 117.16 47.4766C117.582 47.6562 118.07 47.832 118.625 48.0039C119.555 48.2852 120.371 48.6016 121.074 48.9531C121.785 49.3047 122.379 49.6992 122.855 50.1367C123.332 50.5742 123.691 51.0703 123.934 51.625C124.176 52.1797 124.297 52.8086 124.297 53.5117C124.297 54.2539 124.152 54.918 123.863 55.5039C123.574 56.0898 123.156 56.5859 122.609 56.9922C122.062 57.3984 121.41 57.707 120.652 57.918C119.895 58.1289 119.047 58.2344 118.109 58.2344C117.266 58.2344 116.434 58.125 115.613 57.9062C114.793 57.6797 114.047 57.3398 113.375 56.8867C112.711 56.4336 112.18 55.8555 111.781 55.1523C111.383 54.4492 111.184 53.6172 111.184 52.6562H114.711C114.711 53.1875 114.793 53.6367 114.957 54.0039C115.121 54.3711 115.352 54.668 115.648 54.8945C115.953 55.1211 116.312 55.2852 116.727 55.3867C117.148 55.4883 117.609 55.5391 118.109 55.5391C118.719 55.5391 119.219 55.4531 119.609 55.2812C120.008 55.1094 120.301 54.8711 120.488 54.5664C120.684 54.2617 120.781 53.918 120.781 53.5352ZM130.039 45.3203V58H126.652V45.3203H130.039ZM126.441 42.0156C126.441 41.5234 126.613 41.1172 126.957 40.7969C127.301 40.4766 127.762 40.3164 128.34 40.3164C128.91 40.3164 129.367 40.4766 129.711 40.7969C130.062 41.1172 130.238 41.5234 130.238 42.0156C130.238 42.5078 130.062 42.9141 129.711 43.2344C129.367 43.5547 128.91 43.7148 128.34 43.7148C127.762 43.7148 127.301 43.5547 126.957 43.2344C126.613 42.9141 126.441 42.5078 126.441 42.0156ZM140.316 55.2344V40H143.715V58H140.656L140.316 55.2344ZM132.301 51.8125V51.5664C132.301 50.5977 132.41 49.7188 132.629 48.9297C132.848 48.1328 133.168 47.4492 133.59 46.8789C134.012 46.3086 134.531 45.8672 135.148 45.5547C135.766 45.2422 136.469 45.0859 137.258 45.0859C138 45.0859 138.648 45.2422 139.203 45.5547C139.766 45.8672 140.242 46.3125 140.633 46.8906C141.031 47.4609 141.352 48.1367 141.594 48.918C141.836 49.6914 142.012 50.5391 142.121 51.4609V52C142.012 52.8828 141.836 53.7031 141.594 54.4609C141.352 55.2188 141.031 55.8828 140.633 56.4531C140.242 57.0156 139.766 57.4531 139.203 57.7656C138.641 58.0781 137.984 58.2344 137.234 58.2344C136.445 58.2344 135.742 58.0742 135.125 57.7539C134.516 57.4336 134 56.9844 133.578 56.4062C133.164 55.8281 132.848 55.1484 132.629 54.3672C132.41 53.5859 132.301 52.7344 132.301 51.8125ZM135.676 51.5664V51.8125C135.676 52.3359 135.715 52.8242 135.793 53.2773C135.879 53.7305 136.016 54.1328 136.203 54.4844C136.398 54.8281 136.648 55.0977 136.953 55.293C137.266 55.4805 137.645 55.5742 138.09 55.5742C138.668 55.5742 139.145 55.4453 139.52 55.1875C139.895 54.9219 140.18 54.5586 140.375 54.0977C140.578 53.6367 140.695 53.1055 140.727 52.5039V50.9688C140.703 50.4766 140.633 50.0352 140.516 49.6445C140.406 49.2461 140.242 48.9062 140.023 48.625C139.812 48.3438 139.547 48.125 139.227 47.9688C138.914 47.8125 138.543 47.7344 138.113 47.7344C137.676 47.7344 137.301 47.8359 136.988 48.0391C136.676 48.2344 136.422 48.5039 136.227 48.8477C136.039 49.1914 135.898 49.5977 135.805 50.0664C135.719 50.5273 135.676 51.0273 135.676 51.5664ZM152.188 58.2344C151.203 58.2344 150.32 58.0781 149.539 57.7656C148.758 57.4453 148.094 57.0039 147.547 56.4414C147.008 55.8789 146.594 55.2266 146.305 54.4844C146.016 53.7344 145.871 52.9375 145.871 52.0938V51.625C145.871 50.6641 146.008 49.7852 146.281 48.9883C146.555 48.1914 146.945 47.5 147.453 46.9141C147.969 46.3281 148.594 45.8789 149.328 45.5664C150.062 45.2461 150.891 45.0859 151.812 45.0859C152.711 45.0859 153.508 45.2344 154.203 45.5312C154.898 45.8281 155.48 46.25 155.949 46.7969C156.426 47.3438 156.785 48 157.027 48.7656C157.27 49.5234 157.391 50.3672 157.391 51.2969V52.7031H147.312V50.4531H154.074V50.1953C154.074 49.7266 153.988 49.3086 153.816 48.9414C153.652 48.5664 153.402 48.2695 153.066 48.0508C152.73 47.832 152.301 47.7227 151.777 47.7227C151.332 47.7227 150.949 47.8203 150.629 48.0156C150.309 48.2109 150.047 48.4844 149.844 48.8359C149.648 49.1875 149.5 49.6016 149.398 50.0781C149.305 50.5469 149.258 51.0625 149.258 51.625V52.0938C149.258 52.6016 149.328 53.0703 149.469 53.5C149.617 53.9297 149.824 54.3008 150.09 54.6133C150.363 54.9258 150.691 55.168 151.074 55.3398C151.465 55.5117 151.906 55.5977 152.398 55.5977C153.008 55.5977 153.574 55.4805 154.098 55.2461C154.629 55.0039 155.086 54.6406 155.469 54.1562L157.109 55.9375C156.844 56.3203 156.48 56.6875 156.02 57.0391C155.566 57.3906 155.02 57.6797 154.379 57.9062C153.738 58.125 153.008 58.2344 152.188 58.2344ZM176.469 55.2578V58H167.879V55.2578H176.469ZM169.016 40.9375V58H165.5V40.9375H169.016ZM181.836 45.3203V58H178.449V45.3203H181.836ZM178.238 42.0156C178.238 41.5234 178.41 41.1172 178.754 40.7969C179.098 40.4766 179.559 40.3164 180.137 40.3164C180.707 40.3164 181.164 40.4766 181.508 40.7969C181.859 41.1172 182.035 41.5234 182.035 42.0156C182.035 42.5078 181.859 42.9141 181.508 43.2344C181.164 43.5547 180.707 43.7148 180.137 43.7148C179.559 43.7148 179.098 43.5547 178.754 43.2344C178.41 42.9141 178.238 42.5078 178.238 42.0156ZM189.863 55.5977C190.277 55.5977 190.645 55.5195 190.965 55.3633C191.285 55.1992 191.535 54.9727 191.715 54.6836C191.902 54.3867 192 54.0391 192.008 53.6406H195.184C195.176 54.5312 194.938 55.3242 194.469 56.0195C194 56.707 193.371 57.25 192.582 57.6484C191.793 58.0391 190.91 58.2344 189.934 58.2344C188.949 58.2344 188.09 58.0703 187.355 57.7422C186.629 57.4141 186.023 56.9609 185.539 56.3828C185.055 55.7969 184.691 55.1172 184.449 54.3438C184.207 53.5625 184.086 52.7266 184.086 51.8359V51.4961C184.086 50.5977 184.207 49.7617 184.449 48.9883C184.691 48.207 185.055 47.5273 185.539 46.9492C186.023 46.3633 186.629 45.9062 187.355 45.5781C188.082 45.25 188.934 45.0859 189.91 45.0859C190.949 45.0859 191.859 45.2852 192.641 45.6836C193.43 46.082 194.047 46.6523 194.492 47.3945C194.945 48.1289 195.176 49 195.184 50.0078H192.008C192 49.5859 191.91 49.2031 191.738 48.8594C191.574 48.5156 191.332 48.2422 191.012 48.0391C190.699 47.8281 190.312 47.7227 189.852 47.7227C189.359 47.7227 188.957 47.8281 188.645 48.0391C188.332 48.2422 188.09 48.5234 187.918 48.8828C187.746 49.2344 187.625 49.6367 187.555 50.0898C187.492 50.5352 187.461 51.0039 187.461 51.4961V51.8359C187.461 52.3281 187.492 52.8008 187.555 53.2539C187.617 53.707 187.734 54.1094 187.906 54.4609C188.086 54.8125 188.332 55.0898 188.645 55.293C188.957 55.4961 189.363 55.5977 189.863 55.5977ZM200.516 39.9883V58H197.141V39.9883H200.516ZM208.508 45.3203L203 51.6016L200.047 54.5898L198.816 52.1523L201.16 49.1758L204.453 45.3203H208.508ZM205.004 58L201.254 52.1406L203.586 50.1016L208.895 58H205.004Z" fill="#888888"/>
<path d="M115.994 98.708V104.641H99.5806V98.708H115.994ZM102.151 86.0078V118H94.439V86.0078H102.151ZM121.18 86.0078V118H113.489V86.0078H121.18ZM124.805 106.354V105.893C124.805 104.15 125.054 102.546 125.552 101.081C126.05 99.6016 126.783 98.3198 127.75 97.2358C128.716 96.1519 129.91 95.3096 131.331 94.709C132.752 94.0938 134.393 93.7861 136.253 93.7861C138.128 93.7861 139.776 94.0938 141.197 94.709C142.632 95.3096 143.833 96.1519 144.8 97.2358C145.767 98.3198 146.5 99.6016 146.998 101.081C147.496 102.546 147.745 104.15 147.745 105.893V106.354C147.745 108.083 147.496 109.687 146.998 111.167C146.5 112.631 145.767 113.913 144.8 115.012C143.833 116.096 142.64 116.938 141.219 117.539C139.798 118.139 138.157 118.439 136.297 118.439C134.437 118.439 132.789 118.139 131.353 117.539C129.917 116.938 128.716 116.096 127.75 115.012C126.783 113.913 126.05 112.631 125.552 111.167C125.054 109.687 124.805 108.083 124.805 106.354ZM132.21 105.893V106.354C132.21 107.248 132.276 108.083 132.408 108.859C132.54 109.636 132.759 110.317 133.067 110.903C133.375 111.474 133.792 111.921 134.319 112.243C134.847 112.565 135.506 112.727 136.297 112.727C137.073 112.727 137.718 112.565 138.23 112.243C138.758 111.921 139.175 111.474 139.483 110.903C139.791 110.317 140.01 109.636 140.142 108.859C140.274 108.083 140.34 107.248 140.34 106.354V105.893C140.34 105.029 140.274 104.216 140.142 103.454C140.01 102.678 139.791 101.997 139.483 101.411C139.175 100.81 138.758 100.341 138.23 100.004C137.703 99.6675 137.044 99.499 136.253 99.499C135.477 99.499 134.825 99.6675 134.297 100.004C133.785 100.341 133.375 100.81 133.067 101.411C132.759 101.997 132.54 102.678 132.408 103.454C132.276 104.216 132.21 105.029 132.21 105.893ZM158.27 110.925L162.664 94.2256H167.3L165.652 102.597L161.302 118H157.588L158.27 110.925ZM156.534 94.2256L159.258 110.793L159.566 118H155.062L149.437 94.2256H156.534ZM171.211 110.441L173.958 94.2256H181.055L175.474 118H170.97L171.211 110.441ZM167.828 94.2256L172.266 110.881L172.947 118H169.19L164.927 102.641L163.345 94.2256H167.828ZM209.466 86.0078V118H201.753V86.0078H209.466ZM219.09 86.0078V91.9624H192.349V86.0078H219.09ZM216.475 106.354V105.893C216.475 104.15 216.724 102.546 217.222 101.081C217.72 99.6016 218.453 98.3198 219.419 97.2358C220.386 96.1519 221.58 95.3096 223.001 94.709C224.422 94.0938 226.062 93.7861 227.923 93.7861C229.798 93.7861 231.446 94.0938 232.867 94.709C234.302 95.3096 235.503 96.1519 236.47 97.2358C237.437 98.3198 238.169 99.6016 238.667 101.081C239.166 102.546 239.415 104.15 239.415 105.893V106.354C239.415 108.083 239.166 109.687 238.667 111.167C238.169 112.631 237.437 113.913 236.47 115.012C235.503 116.096 234.31 116.938 232.889 117.539C231.468 118.139 229.827 118.439 227.967 118.439C226.106 118.439 224.458 118.139 223.023 117.539C221.587 116.938 220.386 116.096 219.419 115.012C218.453 113.913 217.72 112.631 217.222 111.167C216.724 109.687 216.475 108.083 216.475 106.354ZM223.88 105.893V106.354C223.88 107.248 223.946 108.083 224.078 108.859C224.209 109.636 224.429 110.317 224.737 110.903C225.044 111.474 225.462 111.921 225.989 112.243C226.517 112.565 227.176 112.727 227.967 112.727C228.743 112.727 229.388 112.565 229.9 112.243C230.428 111.921 230.845 111.474 231.153 110.903C231.46 110.317 231.68 109.636 231.812 108.859C231.944 108.083 232.01 107.248 232.01 106.354V105.893C232.01 105.029 231.944 104.216 231.812 103.454C231.68 102.678 231.46 101.997 231.153 101.411C230.845 100.81 230.428 100.341 229.9 100.004C229.373 99.6675 228.714 99.499 227.923 99.499C227.146 99.499 226.495 99.6675 225.967 100.004C225.455 100.341 225.044 100.81 224.737 101.411C224.429 101.997 224.209 102.678 224.078 103.454C223.946 104.216 223.88 105.029 223.88 105.893ZM254.268 86.0078H266.858C269.319 86.0078 271.458 86.374 273.274 87.1064C275.091 87.8389 276.49 88.9229 277.471 90.3584C278.467 91.7939 278.965 93.5664 278.965 95.6758C278.965 97.5068 278.68 99.0376 278.108 100.268C277.537 101.499 276.739 102.517 275.713 103.322C274.703 104.113 273.523 104.765 272.176 105.278L269.649 106.706H259.08L259.036 100.751H266.858C267.84 100.751 268.653 100.576 269.297 100.224C269.942 99.8726 270.425 99.3745 270.748 98.73C271.084 98.0708 271.253 97.2871 271.253 96.3789C271.253 95.4561 271.084 94.665 270.748 94.0059C270.411 93.3467 269.913 92.8413 269.253 92.4897C268.609 92.1382 267.811 91.9624 266.858 91.9624H261.98V118H254.268V86.0078ZM271.78 118L264.705 103.85L272.879 103.806L280.042 117.67V118H271.78ZM297.159 112.221V94.2256H304.585V118H297.642L297.159 112.221ZM297.862 107.387L299.795 107.343C299.795 108.94 299.605 110.419 299.224 111.782C298.843 113.129 298.279 114.301 297.532 115.297C296.8 116.293 295.892 117.07 294.808 117.626C293.738 118.168 292.5 118.439 291.094 118.439C289.922 118.439 288.846 118.278 287.864 117.956C286.897 117.619 286.062 117.099 285.359 116.396C284.656 115.678 284.107 114.763 283.711 113.649C283.331 112.521 283.14 111.174 283.14 109.606V94.2256H290.545V109.65C290.545 110.178 290.611 110.632 290.743 111.013C290.875 111.394 291.065 111.716 291.314 111.979C291.563 112.229 291.871 112.419 292.237 112.551C292.618 112.668 293.05 112.727 293.533 112.727C294.646 112.727 295.518 112.492 296.148 112.023C296.778 111.555 297.217 110.917 297.466 110.112C297.73 109.306 297.862 108.398 297.862 107.387ZM315.945 99.3013V118H308.541V94.2256H315.484L315.945 99.3013ZM315.066 105.3L313.331 105.344C313.331 103.527 313.55 101.909 313.99 100.488C314.429 99.0522 315.052 97.8364 315.857 96.8403C316.663 95.8442 317.623 95.0898 318.736 94.5771C319.864 94.0498 321.116 93.7861 322.493 93.7861C323.592 93.7861 324.595 93.9473 325.503 94.2695C326.426 94.5918 327.217 95.1118 327.876 95.8296C328.55 96.5474 329.063 97.4995 329.415 98.686C329.781 99.8579 329.964 101.308 329.964 103.037V118H322.515V103.015C322.515 102.062 322.383 101.337 322.12 100.839C321.856 100.327 321.475 99.9751 320.977 99.7847C320.479 99.5942 319.871 99.499 319.153 99.499C318.392 99.499 317.747 99.6455 317.22 99.9385C316.692 100.231 316.268 100.642 315.945 101.169C315.638 101.682 315.411 102.29 315.264 102.993C315.132 103.696 315.066 104.465 315.066 105.3ZM345.85 107.871H339.544C339.544 106.582 339.632 105.446 339.808 104.465C339.998 103.469 340.32 102.575 340.774 101.784C341.229 100.993 341.844 100.261 342.62 99.5869C343.309 99.0156 343.902 98.4663 344.4 97.939C344.898 97.4116 345.279 96.877 345.542 96.335C345.806 95.793 345.938 95.2144 345.938 94.5991C345.938 93.8374 345.828 93.2148 345.608 92.7314C345.403 92.248 345.088 91.8892 344.664 91.6548C344.253 91.4058 343.733 91.2812 343.104 91.2812C342.591 91.2812 342.107 91.4058 341.653 91.6548C341.214 91.9038 340.855 92.292 340.577 92.8193C340.298 93.332 340.145 94.0132 340.115 94.8628H332.667C332.71 92.6802 333.194 90.9077 334.117 89.5454C335.054 88.1685 336.299 87.165 337.852 86.5352C339.419 85.8906 341.17 85.5684 343.104 85.5684C345.242 85.5684 347.081 85.8979 348.619 86.5571C350.157 87.2163 351.336 88.1978 352.156 89.5015C352.977 90.7905 353.387 92.3799 353.387 94.2695C353.387 95.5293 353.145 96.6279 352.662 97.5654C352.193 98.4883 351.556 99.3525 350.75 100.158C349.959 100.949 349.073 101.799 348.091 102.707C347.242 103.454 346.663 104.216 346.355 104.992C346.048 105.754 345.879 106.713 345.85 107.871ZM338.643 114.55C338.643 113.496 339.024 112.617 339.786 111.914C340.547 111.196 341.536 110.837 342.752 110.837C343.968 110.837 344.957 111.196 345.718 111.914C346.48 112.617 346.861 113.496 346.861 114.55C346.861 115.605 346.48 116.491 345.718 117.209C344.957 117.912 343.968 118.264 342.752 118.264C341.536 118.264 340.547 117.912 339.786 117.209C339.024 116.491 338.643 115.605 338.643 114.55Z" fill="#424241"/>
<path d="M1363 15C1363 6.71573 1356.28 0 1348 0H1134V167H1348C1356.28 167 1363 160.284 1363 152V15Z" fill="#00DD02"/>
<path d="M1260.77 81.3079C1263.96 81.3079 1267.09 82.2553 1269.74 84.0303C1272.4 85.8053 1274.47 88.3282 1275.69 91.2799C1276.92 94.2316 1277.24 97.4796 1276.61 100.613C1275.99 103.747 1274.45 106.625 1272.19 108.884C1269.93 111.143 1267.05 112.682 1263.92 113.305C1260.79 113.928 1257.54 113.608 1254.59 112.386C1251.64 111.163 1249.11 109.093 1247.34 106.436C1245.56 103.78 1244.62 100.657 1244.62 97.4617C1244.62 93.1774 1246.32 89.0686 1249.35 86.0392C1252.38 83.0098 1256.48 81.3079 1260.77 81.3079ZM1260.77 75.9233C1256.51 75.9233 1252.35 77.1865 1248.8 79.5532C1245.26 81.9198 1242.5 85.2837 1240.87 89.2193C1239.24 93.1549 1238.81 97.4856 1239.64 101.664C1240.48 105.842 1242.53 109.679 1245.54 112.692C1248.55 115.704 1252.39 117.755 1256.57 118.586C1260.75 119.417 1265.08 118.991 1269.01 117.361C1272.95 115.73 1276.31 112.97 1278.68 109.428C1281.04 105.886 1282.31 101.722 1282.31 97.4617C1282.31 91.7493 1280.04 86.271 1276 82.2317C1271.96 78.1925 1266.48 75.9233 1260.77 75.9233Z" fill="white"/>
<path d="M1274.23 49H1220.38C1218.96 49 1217.59 49.5673 1216.58 50.5771C1215.57 51.5869 1215 52.9565 1215 54.3846V108.231C1215 109.659 1215.57 111.028 1216.58 112.038C1217.59 113.048 1218.96 113.615 1220.38 113.615H1231.15V108.231H1220.38V70.5384H1279.62V54.3846C1279.62 52.9565 1279.05 51.5869 1278.04 50.5771C1277.03 49.5673 1275.66 49 1274.23 49ZM1220.38 65.1538V54.3846H1274.23V65.1538H1220.38Z" fill="white"/>
<path d="M1255.38 89.3849V105.539L1268.85 97.4618L1255.38 89.3849Z" fill="white"/>
</svg>
